<svg xmlns="http://www.w3.org/2000/svg" xmlns:xlink="http://www.w3.org/1999/xlink" width="58" height="58" viewBox="0 0 58 58">
  <defs>
    <filter id="Union_3" x="2" y="11" width="54" height="44" filterUnits="userSpaceOnUse">
      <feOffset dy="3" input="SourceAlpha"/>
      <feGaussianBlur stdDeviation="3" result="blur"/>
      <feFlood flood-opacity="0.161"/>
      <feComposite operator="in" in2="blur"/>
      <feComposite in="SourceGraphic"/>
    </filter>
  </defs>
  <g id="Group_4229" data-name="Group 4229" transform="translate(-22490 -11060)">
    <g id="Group_4227" data-name="Group 4227" transform="translate(22473 11050)">
      <g id="Ellipse_1" data-name="Ellipse 1" transform="translate(17 10)" fill="#fff" stroke="#c13e74" stroke-width="1">
        <circle cx="29" cy="29" r="29" stroke="none"/>
        <circle cx="29" cy="29" r="28.5" fill="none"/>
      </g>
      <g id="bot">
        <g id="Group_4150" data-name="Group 4150">
          <g id="Rectangle_1658" data-name="Rectangle 1658" transform="translate(26 37)" fill="#c13e74" stroke="#c13e74" stroke-width="1">
            <rect width="3" height="6" rx="1.5" stroke="none"/>
            <rect x="0.5" y="0.5" width="2" height="5" rx="1" fill="none"/>
          </g>
          <g id="Rectangle_1659" data-name="Rectangle 1659" transform="translate(63 37)" fill="#c13e74" stroke="#c13e74" stroke-width="1">
            <rect width="3" height="6" rx="1.5" stroke="none"/>
            <rect x="0.5" y="0.5" width="2" height="5" rx="1" fill="none"/>
          </g>
          <g id="Union_4" data-name="Union 4" transform="translate(16391 12407)" fill="#c13e74">
            <path d="M -16344.4990234375 -12377.498046875 C -16345.05078125 -12377.498046875 -16345.5 -12377.947265625 -16345.5 -12378.5 L -16345.5 -12383.5 L -16345.5 -12383.75 L -16345.7001953125 -12383.900390625 C -16346.208984375 -12384.28125 -16346.5009765625 -12384.8642578125 -16346.5009765625 -12385.4990234375 C -16346.5009765625 -12386.6025390625 -16345.6025390625 -12387.5009765625 -16344.4990234375 -12387.5009765625 C -16343.396484375 -12387.5009765625 -16342.5 -12386.6025390625 -16342.5 -12385.4990234375 C -16342.5 -12384.8642578125 -16342.7919921875 -12384.28125 -16343.30078125 -12383.8984375 L -16343.5009765625 -12383.7490234375 L -16343.5009765625 -12383.4990234375 L -16343.5009765625 -12378.5 C -16343.5009765625 -12377.947265625 -16343.9482421875 -12377.498046875 -16344.4990234375 -12377.498046875 Z" stroke="none"/>
            <path d="M -16344.4990234375 -12377.998046875 C -16344.224609375 -12377.998046875 -16344.0009765625 -12378.2236328125 -16344.0009765625 -12378.5 L -16344.0009765625 -12383.9990234375 L -16343.6015625 -12384.298828125 C -16343.21875 -12384.5859375 -16343 -12385.0234375 -16343 -12385.4990234375 C -16343 -12386.3271484375 -16343.6728515625 -12387.0009765625 -16344.4990234375 -12387.0009765625 C -16345.3271484375 -12387.0009765625 -16346.0009765625 -12386.3271484375 -16346.0009765625 -12385.4990234375 C -16346.0009765625 -12385.0234375 -16345.7822265625 -12384.5859375 -16345.400390625 -12384.2998046875 L -16345 -12384 L -16345 -12378.5 C -16345 -12378.2236328125 -16344.775390625 -12377.998046875 -16344.4990234375 -12377.998046875 M -16344.4990234375 -12376.998046875 C -16345.3271484375 -12376.998046875 -16346 -12377.6708984375 -16346 -12378.5 L -16346 -12383.5 C -16346.6083984375 -12383.9560546875 -16347.0009765625 -12384.6826171875 -16347.0009765625 -12385.4990234375 C -16347.0009765625 -12386.8818359375 -16345.880859375 -12388.0009765625 -16344.4990234375 -12388.0009765625 C -16343.1201171875 -12388.0009765625 -16342 -12386.8818359375 -16342 -12385.4990234375 C -16342 -12384.681640625 -16342.3935546875 -12383.955078125 -16343.0009765625 -12383.4990234375 L -16343.0009765625 -12378.5 C -16343.0009765625 -12377.6708984375 -16343.673828125 -12376.998046875 -16344.4990234375 -12376.998046875 Z" stroke="none" fill="#c13e74"/>
          </g>
          <g transform="matrix(1, 0, 0, 1, 17, 10)" filter="url(#Union_3)">
            <path id="Union_3-2" data-name="Union 3" d="M-16342-12388h26a5,5,0,0,1,5,5v16a5,5,0,0,1-5,5h-26a5,5,0,0,1-5-5v-16A5,5,0,0,1-16342-12388Z" transform="translate(16358 12405)" fill="#da5283"/>
          </g>
          <path id="Path_2751" data-name="Path 2751" d="M39.881,39.488a14.537,14.537,0,0,0,6.484,1.983,14.3,14.3,0,0,0,6.447-1.983" transform="translate(0 5)" fill="none" stroke="#f6f6f6" stroke-linecap="square" stroke-width="1.5"/>
          <path id="Polygon_27" data-name="Polygon 27" d="M3.628,1.549a1,1,0,0,1,1.743,0l2.79,4.96A1,1,0,0,1,7.29,8H1.71A1,1,0,0,1,.838,6.51Z" transform="translate(48.928 47.103) rotate(60)" fill="#da5283"/>
        </g>
      </g>
      <path id="Subtraction_3" data-name="Subtraction 3" d="M-22482.912-11203h-1.037a2.5,2.5,0,0,1,.242-.671,2.5,2.5,0,0,1,2.213-1.332,2.507,2.507,0,0,1,1.168.293,2.5,2.5,0,0,1,1.275,1.709h-1.031a1.488,1.488,0,0,0-.713-.823,1.473,1.473,0,0,0-.7-.175,1.5,1.5,0,0,0-1.326.795,1.862,1.862,0,0,0-.092.2Z" transform="translate(22537.996 11238.996)" fill="#eee"/>
      <path id="Subtraction_5" data-name="Subtraction 5" d="M-22482.912-11203h-1.037a2.5,2.5,0,0,1,.242-.671,2.5,2.5,0,0,1,2.213-1.332,2.507,2.507,0,0,1,1.168.293,2.5,2.5,0,0,1,1.275,1.709h-1.031a1.488,1.488,0,0,0-.713-.823,1.473,1.473,0,0,0-.7-.175,1.5,1.5,0,0,0-1.326.795,1.862,1.862,0,0,0-.092.2Z" transform="translate(22517.996 11238.996)" fill="#eee"/>
    </g>
  </g>
</svg>
